<?xml version="1.0" encoding="utf-8"?>
<!-- Generator: Adobe Illustrator 22.0.1, SVG Export Plug-In . SVG Version: 6.00 Build 0)  -->
<svg version="1.1" id="Layer_1" xmlns="http://www.w3.org/2000/svg" xmlns:xlink="http://www.w3.org/1999/xlink" x="0px" y="0px"
	 viewBox="0 0 2500 751" style="enable-background:new 0 0 2500 751;" xml:space="preserve">
<style type="text/css">
	.st0{fill:#282828;}
</style>
<path class="st0" d="M374.9,0.6C167.9,0.6,0,168.5,0,375.5c0,207.1,167.9,374.9,374.9,374.9c207.1,0,374.9-167.8,374.9-374.9
	C749.8,168.5,582,0.6,374.9,0.6L374.9,0.6L374.9,0.6z M546.8,541.3c-6.7,11-21.1,14.5-32.1,7.8c0,0,0,0,0,0
	c-88-53.8-198.8-65.9-329.3-36.1c-12.6,2.9-25.1-5-28-17.6c-2.9-12.6,5-25.1,17.5-28c0,0,0,0,0.1,0
	c142.8-32.6,265.3-18.6,364.1,41.8C550.1,515.9,553.6,530.3,546.8,541.3z M592.7,439.2c-8.5,13.8-26.5,18.1-40.2,9.6
	c-100.8-61.9-254.4-79.9-373.6-43.7c-15.5,4.7-31.8-4-36.5-19.5c-4.7-15.4,4.1-31.8,19.5-36.5c136.2-41.3,305.4-21.3,421.1,49.8
	C596.8,407.5,601.2,425.5,592.7,439.2L592.7,439.2z M596.7,332.9c-120.8-71.8-320.2-78.4-435.5-43.4c-18.5,5.6-38.1-4.8-43.7-23.4
	c-5.6-18.5,4.8-38.1,23.4-43.7c132.4-40.2,352.6-32.4,491.7,50.1c16.6,9.8,22.2,31.3,12.3,48c0,0,0,0.1,0,0.1
	C634.9,337.3,613.3,342.8,596.7,332.9L596.7,332.9z M1020,346.7c-64.7-15.4-76.2-26.3-76.2-49c0-21.5,20.2-36,50.4-36
	c29.2,0,58.1,11,88.5,33.6c0.9,0.7,2.1,1,3.2,0.8c1.1-0.2,2.2-0.8,2.8-1.7l31.6-44.6c1.3-1.8,0.9-4.4-0.8-5.8
	c-36.1-29-76.8-43.1-124.3-43.1c-69.9,0-118.7,41.9-118.7,102c0,64.4,42.1,87.1,114.9,104.7c61.9,14.3,72.4,26.2,72.4,47.6
	c0,23.7-21.1,38.4-55.2,38.4c-37.8,0-68.6-12.8-103.1-42.6c-0.9-0.7-2-1.1-3.1-1c-1.2,0.1-2.2,0.6-2.9,1.5l-35.5,42.2
	c-1.5,1.8-1.3,4.4,0.4,5.9c40.1,35.8,89.4,54.7,142.7,54.7c75.3,0,124-41.1,124-104.8c0.1-53.8-32.1-83.5-110.9-102.7L1020,346.7z
	 M1301.4,282.8c-32.6,0-59.4,12.9-81.5,39.2v-29.7c0-2.3-1.9-4.2-4.2-4.2h-58c-2.3,0-4.2,1.9-4.2,4.2v329.5c0,2.3,1.9,4.3,4.2,4.3
	h58c2.3,0,4.2-1.9,4.2-4.3v-104c22.1,24.8,48.9,36.9,81.5,36.9c60.7,0,122.1-46.7,122.1-136C1423.6,329.6,1362.2,282.8,1301.4,282.8
	L1301.4,282.8z M1356.1,418.8c0,45.4-28,77.2-68.1,77.2c-39.6,0-69.5-33.2-69.5-77.2c0-44,29.9-77.2,69.5-77.2
	C1327.4,341.7,1356.1,374.1,1356.1,418.8L1356.1,418.8z M1580.9,282.8c-78.1,0-139.3,60.2-139.3,137c0,76,60.8,135.5,138.4,135.5
	c78.4,0,139.8-59.9,139.8-136.5C1719.7,342.6,1658.7,282.9,1580.9,282.8L1580.9,282.8z M1580.9,496.5c-41.5,0-72.9-33.4-72.9-77.6
	c0-44.5,30.3-76.7,71.9-76.7c41.8,0,73.3,33.4,73.3,77.7C1653.2,464.2,1622.8,496.5,1580.9,496.5L1580.9,496.5z M1886.5,288.1h-63.8
	v-65.2c0-2.3-1.9-4.2-4.2-4.2c0,0,0,0,0,0h-58c-2.3,0-4.3,1.9-4.3,4.2v65.2h-27.8c-2.3,0-4.2,1.9-4.2,4.2v49.8
	c0,2.3,1.9,4.2,4.2,4.2h27.8v128.9c0,52.1,25.9,78.5,77.1,78.5c20.8,0,38-4.3,54.3-13.5c1.3-0.7,2.1-2.1,2.1-3.7v-47.5
	c0-1.4-0.8-2.8-2-3.6c-1.2-0.8-2.8-0.9-4.1-0.2c-11.1,5.6-21.9,8.2-34,8.2c-18.6,0-26.9-8.5-26.9-27.4V346.5h63.8
	c2.3,0,4.2-1.9,4.2-4.2v-49.8c0.1-2.3-1.7-4.2-4-4.2C1886.7,288.2,1886.6,288.2,1886.5,288.1L1886.5,288.1z M2108.7,288.4v-8
	c0-23.6,9-34.1,29.3-34.1c12.1,0,21.8,2.4,32.7,6c1.3,0.4,2.7,0.2,3.8-0.6c1.1-0.8,1.8-2.1,1.7-3.4v-48.8c0-1.9-1.2-3.5-3-4.1
	c-11.5-3.4-26.1-6.9-48.2-6.9c-53.5,0-81.8,30.1-81.8,87.2v12.3h-27.8c-2.3,0-4.3,1.9-4.3,4.2v50.1c0,2.3,1.9,4.2,4.3,4.2h27.8
	v198.8c0,2.4,1.9,4.3,4.3,4.3h57.9c2.4,0,4.3-1.9,4.3-4.3V346.5h54.1l82.9,198.8c-9.4,20.9-18.7,25-31.3,25c-10.2,0-21-3-32-9.1
	c-1-0.5-2.2-0.6-3.4-0.3c-1.1,0.4-2.1,1.2-2.5,2.3l-19.7,43.1c-0.9,2.1-0.1,4.4,1.8,5.5c20.5,11.1,39,15.8,61.9,15.8
	c42.8,0,66.5-20,87.3-73.6l100.6-259.8c0.5-1.3,0.4-2.8-0.4-3.9c-0.8-1.2-2.1-1.8-3.4-1.8h-60.3c-1.8,0-3.4,1.2-4,2.8l-61.8,176.5
	l-67.7-176.7c-0.6-1.6-2.2-2.7-3.9-2.7L2108.7,288.4L2108.7,288.4z M1979.9,288.1h-58c-2.3,0-4.3,1.9-4.3,4.2v252.9
	c0,2.4,1.9,4.3,4.3,4.3h58c2.3,0,4.3-1.9,4.3-4.3V292.4C1984.1,290.1,1982.2,288.2,1979.9,288.1
	C1979.9,288.2,1979.9,288.2,1979.9,288.1L1979.9,288.1z M1951.2,173c-23,0-41.6,18.6-41.6,41.5c0,23,18.6,41.6,41.6,41.6
	s41.5-18.6,41.5-41.6C1992.8,191.6,1974.1,173,1951.2,173z M2459,369.5c-22.9,0-40.8-18.4-40.8-40.8s18.1-41,41-41
	c22.9,0,40.8,18.4,40.8,40.8C2500,350.8,2481.9,369.5,2459,369.5L2459,369.5z M2459.2,291.7c-20.9,0-36.7,16.6-36.7,36.9
	c0,20.3,15.7,36.7,36.5,36.7c20.9,0,36.7-16.6,36.7-36.9C2495.7,308.1,2480,291.7,2459.2,291.7L2459.2,291.7z M2468.3,332.6
	l11.6,16.2h-9.8l-10.4-14.8h-8.9v14.8h-8.1V306h19.1c10,0,16.5,5.1,16.5,13.7C2478.2,326.6,2474.2,330.9,2468.3,332.6L2468.3,332.6z
	 M2461.4,313.3h-10.6v13.5h10.6c5.3,0,8.5-2.6,8.5-6.8C2469.8,315.7,2466.6,313.3,2461.4,313.3z"/>
</svg>
