<?xml version="1.0" encoding="utf-8"?>
<!-- Generator: Adobe Illustrator 22.0.1, SVG Export Plug-In . SVG Version: 6.00 Build 0)  -->
<svg version="1.1" id="Layer_1" xmlns="http://www.w3.org/2000/svg" xmlns:xlink="http://www.w3.org/1999/xlink" x="0px" y="0px"
	 viewBox="0 0 2931 2931" style="enable-background:new 0 0 2931 2931;" xml:space="preserve">
<style type="text/css">
	.st0{fill:#282828;}
</style>
<path class="st0" d="M1465.5,0C656.1,0,0,656.1,0,1465.5S656.1,2931,1465.5,2931S2931,2274.9,2931,1465.5
	C2931,656.2,2274.9,0.1,1465.5,0z M2137.6,2113.6c-26.3,43.2-82.6,56.7-125.6,30.4c-344.1-210.3-777.3-257.8-1287.4-141.3
	c-49.2,11.3-98.2-19.5-109.4-68.7c-11.3-49.2,19.4-98.2,68.7-109.4C1242.1,1697.1,1721,1752,2107.3,1988
	C2150.3,2014.5,2164,2070.6,2137.6,2113.6z M2316.9,1714.7c-33.1,53.8-103.5,70.6-157.2,37.6c-393.8-242.1-994.4-312.2-1460.3-170.8
	c-60.4,18.3-124.2-15.8-142.6-76.1c-18.2-60.4,15.9-124.1,76.2-142.5c532.2-161.5,1193.9-83.3,1646.2,194.7
	C2333,1590.7,2350,1661,2316.9,1714.7L2316.9,1714.7z M2332.3,1299.1c-472.4-280.5-1251.6-306.3-1702.6-169.5
	c-72.4,22-149-18.9-170.9-91.3s18.9-149,91.4-171c517.7-157.1,1378.2-126.8,1922,196c65.1,38.7,86.5,122.8,47.9,187.8
	C2481.6,1316.3,2397.3,1337.8,2332.3,1299.1z"/>
</svg>
