<?xml version="1.0" encoding="utf-8"?>
<!-- Generator: Adobe Illustrator 22.0.1, SVG Export Plug-In . SVG Version: 6.00 Build 0)  -->
<svg version="1.1" id="Layer_1" xmlns="http://www.w3.org/2000/svg" xmlns:xlink="http://www.w3.org/1999/xlink" x="0px" y="0px"
	 viewBox="0 0 2931 2931" style="enable-background:new 0 0 2931 2931;" xml:space="preserve">
<style type="text/css">
	.st0{fill:#FFFFFF;}
	.st1{fill:#282828;}
</style>
<g>
	<path class="st0" d="M1465.5,2924.4c805.8,0,1458.9-653.1,1458.9-1458.9c0-805.7-653.1-1458.8-1459-1458.8l0-0.1l0,0
		C659.8,6.6,6.6,659.8,6.6,1465.5"/>
	<path class="st0" d="M6.6,1465.5c0,805.8,653.2,1458.9,1458.9,1458.9"/>
	<path class="st1" d="M2134.5,2110.8c-26.1,42.8-82.1,56.4-124.9,30.2c-0.1,0-0.1-0.1-0.2-0.1
		c-342.5-209.2-773.8-256.6-1281.6-140.6c-49,11.1-97.7-19.5-108.9-68.5c-11.2-48.9,19.3-97.6,68.2-108.8c0.1,0,0.1,0,0.2,0
		c555.7-127,1032.5-72.3,1417,162.7C2147.3,2012,2160.9,2067.9,2134.5,2110.8z"/>
	<path class="st1" d="M2313.1,1713.5c-32.9,53.5-103,70.4-156.4,37.5c-392.2-241-989.9-310.9-1453.8-170.1
		c-60.2,18.2-123.7-15.7-142-75.8c-18.1-60.1,15.8-123.6,75.9-141.9c529.8-160.8,1188.5-82.9,1638.9,193.8
		C2329.1,1590.1,2346,1660.1,2313.1,1713.5L2313.1,1713.5z"/>
	<path class="st1" d="M2328.4,1299.9c-470.2-279.3-1246-305-1694.9-168.7c-72.1,21.9-148.3-18.8-170.2-90.9
		c-21.9-72.1,18.8-148.3,91-170.2c515.3-156.4,1372.1-126.2,1913.4,195.2c64.8,38.3,86.2,121.9,47.9,186.7c-0.1,0.1-0.1,0.2-0.2,0.3
		C2477.1,1317,2393.2,1338.4,2328.4,1299.9L2328.4,1299.9z"/>
</g>
</svg>
